<?xml version="1.0" encoding="UTF-8" standalone="no"?>
<svg width="800" height="600" viewBox="0 0 800 600"
    xmlns="http://www.w3.org/2000/svg">
    <!-- Cielo nocturno -->
    <rect width="800" height="600" fill="#2C1E31"/>

    <!-- Luna -->
    <circle cx="700" cy="100" r="60" fill="#FFFCE8" opacity="0.8"/>
    <circle cx="670" cy="80" r="15" fill="#2C1E31" opacity="0.1"/>
    <circle cx="690" cy="120" r="10" fill="#2C1E31" opacity="0.1"/>

    <!-- Montañas lejanas -->
    <polygon points="0,600 200,300 400,450 600,350 800,400 800,600" fill="#1a0f23"/>

    <!-- Árboles oscuros -->
    <g fill="#0F0A14">
        <!-- Árbol 1 -->
        <rect x="100" y="450" width="20" height="50"/>
        <polygon points="60,450 160,450 110,350" />

        <!-- Árbol 2 -->
        <rect x="300" y="480" width="15" height="40"/>
        <polygon points="270,480 345,480 307.5,400" />

        <!-- Árbol 3 -->
        <rect x="500" y="470" width="18" height="45"/>
        <polygon points="470,470 550,470 510,380" />

        <!-- Árbol 4 -->
        <rect x="700" y="490" width="14" height="35"/>
        <polygon points="675,490 740,490 707.5,410" />
    </g>

    <!-- Niebla en la parte inferior -->
    <rect x="0" y="520" width="800" height="80" fill="#c8c8ff" opacity="0.07"/>
</svg> 